# xmcd CD database file
#
# Track frame offsets:
#	150
#	15073
#	26027
#	36772
#	46125
#	56048
#	67478
#	79748
#	90139
#	99178
#	113075
#	126688
#	137009
#	146477
#	156597
#	164840
#	179101
#	191282
#	203117
#	214173
#	224950
#	234805
#	244767
#	256201
#	267568
#	285332
#
# Disc length: 3819 seconds
#
# Revision: 0
# Processed by: cddbd v1.5.2PL0 Copyright (c) Steve Scherf et al.
# Submitted via: CDex 1.51
#
DISCID=840ee91a
DTITLE=Ray Campi - The Ultimate Jimmie Skinner Songbook
DYEAR=2011
DGENRE=Country
TTITLE0=Doin' My Time
TTITLE1=Just Ramblin' On
TTITLE2=On The Wrong Side Of The Tracks
TTITLE3=Where My Sweet Baby Goes
TTITLE4=Too Hot To Handle
TTITLE5=You Don't Know My Mind
TTITLE6=What A Pleasure
TTITLE7=I Found My Girl In The USA
TTITLE8=Dark Hollow
TTITLE9=Will You Be Satisfied That Way
TTITLE10=How Low Can You Feel
TTITLE11=Muddy Water Blues
TTITLE12=I'm A Regular Daddy Now
TTITLE13=By Degrees
TTITLE14=Big City
TTITLE15=There's Nothin' About You Special
TTITLE16=Born To Be Wild
TTITLE17=Don't Give Your Heart To A Rambler
TTITLE18=It's Blowin' A way
TTITLE19=The Blues Are Out Early Tonight
TTITLE20=I Ain't Got Time
TTITLE21=Good Time Woman
TTITLE22=I'm Running Out Of Time
TTITLE23=Let's Say Goodbye Like We Said Hello (Live)
TTITLE24=Jimmie Skins The Blues
TTITLE25=Jimmie Skinner Spoken Word
EXTD=YEAR: 2011
EXTT0=
EXTT1=
EXTT2=
EXTT3=
EXTT4=
EXTT5=
EXTT6=
EXTT7=
EXTT8=
EXTT9=
EXTT10=
EXTT11=
EXTT12=
EXTT13=
EXTT14=
EXTT15=
EXTT16=
EXTT17=
EXTT18=
EXTT19=
EXTT20=
EXTT21=
EXTT22=
EXTT23=
EXTT24=
EXTT25=
PLAYORDER=
